<svg xmlns="http://www.w3.org/2000/svg" viewBox="0 0 96 96" fill="none">
  <rect width="96" height="96" rx="26" fill="#1C344A"/>
  <path d="M26 31C26 24.9249 30.9249 20 37 20H59C65.0751 20 70 24.9249 70 31V43.5C70 49.5751 65.0751 54.5 59 54.5H37C30.9249 54.5 26 49.5751 26 43.5V31Z" fill="url(#paint0_linear_1_2)"/>
  <path d="M35 63.5C35 58.2533 39.2533 54 44.5 54H51.5C56.7467 54 61 58.2533 61 63.5C61 68.7467 56.7467 73 51.5 73H44.5C39.2533 73 35 68.7467 35 63.5Z" fill="#F7EFE4"/>
  <path d="M38 37H58" stroke="#F7EFE4" stroke-width="6" stroke-linecap="round"/>
  <path d="M42 63.5H54" stroke="#1C344A" stroke-width="5" stroke-linecap="round"/>
  <defs>
    <linearGradient id="paint0_linear_1_2" x1="26" y1="20" x2="71.7942" y2="54.5" gradientUnits="userSpaceOnUse">
      <stop stop-color="#0F8B8D"/>
      <stop offset="1" stop-color="#C96B3B"/>
    </linearGradient>
  </defs>
</svg>
